<?xml version="1.0" standalone="no"?><!DOCTYPE svg PUBLIC "-//W3C//DTD SVG 1.1//EN" "http://www.w3.org/Graphics/SVG/1.1/DTD/svg11.dtd"><svg t="1599600215589" class="icon" viewBox="0 0 1024 1024" version="1.1" xmlns="http://www.w3.org/2000/svg" p-id="2129" xmlns:xlink="http://www.w3.org/1999/xlink" width="200" height="200"><defs><style type="text/css"></style></defs><path d="M429.909333 469.333333c25.6 0 46.336 19.2 45.866667 42.666667 0 23.466667-20.224 42.666667-45.866667 42.666667C404.736 554.666667 384 535.466667 384 512s20.266667-42.666667 45.909333-42.666667z m164.181334 0c25.642667 0 45.909333 19.2 45.909333 42.666667s-20.266667 42.666667-45.909333 42.666667c-25.173333 0-45.866667-19.2-45.866667-42.666667s20.224-42.666667 45.866667-42.666667z m211.925333-384C855.637333 85.333333 896 126.549333 896 177.621333V981.333333l-94.336-85.12-53.12-50.176-56.192-53.333333 23.296 82.901333H217.984C168.362667 875.605333 128 834.389333 128 783.317333V177.621333C128 126.549333 168.362667 85.333333 217.984 85.333333H805.973333z m-169.386667 585.088c96.981333-3.114667 134.314667-68.096 134.314667-68.096 0-144.256-63.232-261.205333-63.232-261.205333-63.146667-48.341333-123.306667-47.018667-123.306667-47.018667l-6.144 7.168c74.624 23.296 109.269333 56.917333 109.269334 56.917334a352.554667 352.554667 0 0 0-132.096-43.008 363.818667 363.818667 0 0 0-88.618667 0.853333c-2.645333 0-4.864 0.469333-7.466667 0.896-15.36 1.365333-52.693333 7.168-99.626666 28.245333-16.213333 7.594667-25.898667 13.013333-25.898667 13.013334s36.437333-35.413333 115.413333-58.709334l-4.394666-5.376s-60.117333-1.322667-123.306667 47.061334c0 0-63.189333 116.906667-63.189333 261.162666 0 0 36.864 64.938667 133.845333 68.096 0 0 16.213333-20.138667 29.44-37.162666-55.765333-17.066667-76.8-52.906667-76.8-52.906667s4.352 3.157333 12.245333 7.637333c0.426667 0.426667 0.853333 0.896 1.749334 1.322667 1.322667 0.938667 2.645333 1.365333 3.968 2.261333 10.965333 6.272 21.930667 11.178667 32 15.232 18.005333 7.168 39.509333 14.336 64.554666 19.285334a301.226667 301.226667 0 0 0 113.664 0.426666 284.416 284.416 0 0 0 63.616-19.242666c15.36-5.845333 32.469333-14.378667 50.474667-26.453334 0 0-21.930667 36.736-79.445333 53.333334 13.184 17.024 29.013333 36.266667 29.013333 36.266666z" p-id="2130"></path></svg>